<svg width="172" height="173" viewBox="0 0 172 173" fill="none" xmlns="http://www.w3.org/2000/svg">
<path d="M146.922 154.835C145.077 164.099 137.059 170.52 128.838 171.92C120.618 173.32 112.282 170.599 104.585 167.015C104.239 166.854 103.894 166.692 103.55 166.527C92.4367 161.229 79.5578 161.229 68.4448 166.528C68.1003 166.692 67.7554 166.854 67.4099 167.015C59.7131 170.599 51.3768 173.32 43.1557 171.92C34.9345 170.52 26.918 164.099 25.073 154.835C23.1936 145.405 27.9832 135.79 34.0919 129.099C40.2007 122.408 47.7136 117.54 53.6715 110.674C58.9242 104.622 62.7935 97.2214 67.2619 90.3956C69.8856 86.3861 72.9237 82.7163 77.1035 80.3706C82.6137 77.2783 89.3815 77.2783 94.8916 80.3709C99.0708 82.7166 102.108 86.3863 104.733 90.3956C109.2 97.2214 113.071 104.622 118.322 110.674C124.28 117.54 131.793 122.408 137.901 129.099C144.01 135.791 148.8 145.406 146.922 154.835Z" fill="#0D2D4C"/>
<path d="M74.7619 61.3708C69.8532 66.2818 61.3714 67.2046 54.6985 64.6274C45.7129 61.156 40.0595 52.2821 39.103 43.3183C38.1482 34.3544 41.2722 25.378 45.8495 17.427C47.7863 14.0629 52.6883 8.46405 58.994 8.46405C70.5996 8.46405 79.6902 23.9122 80.1859 43.3886C80.3306 49.0761 78.9378 57.1963 74.7619 61.3708Z" fill="#0D2D4C"/>
<path d="M43.6757 98.8763C40.3782 104.95 32.5443 108.228 25.4464 107.653C15.8882 106.879 7.98462 100.008 4.53939 91.7223C1.09572 83.4365 1.53938 73.9855 3.66141 65.1039C4.56062 61.3445 7.65691 54.6155 13.6756 52.8344C24.752 49.5538 37.7941 61.7298 43.7708 80.1796C45.517 85.5676 46.4817 93.7122 43.6757 98.8763Z" fill="#0D2D4C"/>
<path d="M97.2323 61.3708C102.141 66.2818 110.623 67.2046 117.296 64.6274C126.281 61.156 131.935 52.2821 132.891 43.3183C133.846 34.3544 130.722 25.378 126.145 17.427C124.208 14.0629 119.306 8.46405 113 8.46405C101.395 8.46405 92.304 23.9122 91.8084 43.3886C91.6637 49.0761 93.0564 57.1963 97.2323 61.3708Z" fill="#0D2D4C"/>
<path d="M128.319 98.8763C131.616 104.95 139.45 108.228 146.548 107.653C156.106 106.879 164.01 100.008 167.455 91.7223C170.899 83.4365 170.455 73.9855 168.333 65.1039C167.434 61.3445 164.338 54.6155 158.319 52.8344C147.242 49.5538 134.2 61.7298 128.224 80.1796C126.477 85.5676 125.513 93.7122 128.319 98.8763Z" fill="#0D2D4C"/>
<path d="M135.75 117.326C131.331 113.216 126.513 109.544 122.294 105.218C118.056 100.873 114.769 95.7722 111.602 90.6244C108.529 85.6293 105.642 80.3092 101.426 76.1598C97.1103 71.9112 91.2885 69.4768 85.197 69.7438C82.0708 69.8808 78.976 70.6047 76.1861 72.0455C73.6754 73.3421 71.4534 75.1375 69.5494 77.2162C65.4939 81.6437 62.6227 87.0496 59.4678 92.1185C56.2681 97.2595 52.8391 102.186 48.4882 106.428C44.1652 110.642 39.3399 114.301 35.004 118.502C30.8883 122.489 27.2961 127.026 25.0174 132.321C22.789 137.499 21.8371 143.337 23.3232 148.851C24.6385 153.732 27.6686 157.982 31.7376 160.968C36.1703 164.22 41.4349 165.809 46.9045 165.958C53.5656 166.139 60.0951 164.193 66.1652 161.604C68.9339 160.424 71.6207 159.006 74.4339 158.09C77.3059 157.156 79.7897 156.644 82.784 156.366C82.9926 156.346 83.2013 156.33 83.41 156.312C83.4658 156.308 83.5093 156.304 83.5435 156.301C83.873 156.28 84.2029 156.265 84.5328 156.254C85.2995 156.226 86.0669 156.22 86.834 156.236C87.1828 156.243 87.5313 156.255 87.8798 156.271C88.0543 156.279 88.2289 156.288 88.4033 156.299C88.4705 156.304 88.6401 156.317 88.6886 156.321C89.4545 156.382 90.2186 156.465 90.9799 156.569C93.7199 156.944 96.469 157.625 99.1439 158.643C102.062 159.753 104.822 161.239 107.729 162.384C110.834 163.607 114.001 164.612 117.278 165.259C123.221 166.433 129.51 166.245 135.143 163.882C139.698 161.972 143.724 158.644 146.307 154.419C147.607 152.293 148.49 149.949 148.987 147.509C150.089 141.833 148.808 135.988 146.301 130.851C143.757 125.638 139.971 121.253 135.75 117.326ZM137.506 159.332C135.701 160.783 133.806 161.868 131.6 162.72C131.579 162.728 131.563 162.734 131.551 162.739C131.528 162.747 131.501 162.756 131.469 162.767C131.364 162.804 131.259 162.841 131.154 162.877C130.891 162.966 130.627 163.05 130.361 163.13C129.827 163.289 129.287 163.428 128.743 163.547C128.687 163.558 128.578 163.579 128.53 163.588C128.377 163.616 128.223 163.642 128.069 163.667C127.702 163.726 127.335 163.777 126.967 163.821C126.6 163.864 126.232 163.9 125.864 163.927C125.959 163.92 126.184 163.912 125.751 163.933C125.494 163.946 125.237 163.955 124.979 163.961C124.28 163.978 123.582 163.961 122.883 163.934C122.81 163.932 122.756 163.93 122.717 163.929C122.678 163.925 122.624 163.921 122.551 163.915C122.404 163.903 122.257 163.891 122.11 163.878C121.669 163.838 121.229 163.789 120.79 163.732C119.25 163.53 118.047 163.286 116.577 162.906C113.639 162.146 110.795 161.09 108.017 159.874C105.169 158.628 102.414 157.249 99.4436 156.299C96.6165 155.396 93.6777 154.783 90.7255 154.479C84.6983 153.857 78.54 154.419 72.753 156.235C69.8173 157.157 67.0957 158.496 64.291 159.737C61.5168 160.963 58.6781 162.039 55.7443 162.821C54.2779 163.211 53.1298 163.458 51.6447 163.671C49.9862 163.91 48.972 163.987 47.3461 163.967C46.9781 163.963 46.6103 163.951 46.2427 163.933C45.8098 163.912 46.0347 163.92 46.1298 163.927C45.909 163.911 45.6884 163.891 45.468 163.869C44.7401 163.795 44.0232 163.677 43.3021 163.558C43.2925 163.556 43.2838 163.555 43.2761 163.554C43.2627 163.55 43.2482 163.547 43.2324 163.544C43.1253 163.519 43.0181 163.496 42.9112 163.471C42.6432 163.408 42.3762 163.34 42.1108 163.267C41.5418 163.111 40.9787 162.932 40.4241 162.73C40.3836 162.715 40.3324 162.696 40.3158 162.689C40.1601 162.627 40.0039 162.566 39.8489 162.502C39.5899 162.394 39.3328 162.282 39.0779 162.165C38.5397 161.918 38.0111 161.651 37.493 161.364C36.5249 160.828 35.6821 160.266 34.7576 159.545C32.9249 158.116 31.3242 156.422 30.0458 154.479C27.1621 150.097 26.2209 144.869 26.9964 139.708C27.8105 134.29 30.4054 129.221 33.699 124.896C37.1508 120.364 41.587 116.688 45.8831 112.993C50.36 109.141 54.6703 105.169 58.2267 100.427C61.8397 95.6103 64.7978 90.3508 68.011 85.2692C70.8516 80.777 74.0385 76.1882 78.8347 73.6034C80.0684 72.9385 81.1553 72.5107 82.4753 72.1688C83.6819 71.8563 84.8029 71.7254 85.9979 71.7254C86.2985 71.7254 86.5981 71.7399 86.8985 71.7479C86.918 71.7484 86.9334 71.7487 86.9468 71.7489C86.9754 71.7521 87.0091 71.7557 87.0488 71.7599C87.2149 71.7774 87.3812 71.7916 87.5472 71.8109C88.3489 71.9036 88.7031 71.9664 89.3253 72.1195C90.6972 72.4573 91.8056 72.8822 93.0706 73.5549C97.8798 76.1119 101.084 80.6879 103.926 85.1766C107.123 90.2265 110.062 95.4548 113.639 100.254C117.182 105.009 121.472 108.999 125.95 112.854C130.248 116.554 134.698 120.221 138.174 124.739C141.49 129.047 144.107 134.102 144.968 139.511C145.39 142.165 145.37 144.87 144.857 147.51C143.904 152.183 141.207 156.356 137.506 159.332Z" fill="#0D2D4C"/>
<path d="M61.0381 2.08597C60.9849 2.07399 60.9331 2.05949 60.8869 2.03982C60.8847 2.03933 60.8825 2.03885 60.8803 2.03836C60.993 2.09132 61.0595 2.09999 61.0381 2.08597Z" fill="#0D2D4C"/>
<path d="M42.6067 49.7923C46.0321 54.2354 50.8616 57.3954 56.3222 58.6901C59.2754 59.3903 62.4243 59.551 65.4361 59.1847C68.3008 58.8362 71.1464 58.0613 73.6465 56.586C74.7598 55.929 75.7971 55.1304 76.7155 54.2208C78.4956 52.4209 79.6502 50.1062 80.4781 47.7375C81.353 45.2348 81.8513 42.5996 82.0833 39.9622C82.3249 37.216 82.2109 34.4544 81.9539 31.7133C81.6824 28.8162 81.21 25.9358 80.5082 23.1114C79.29 18.2088 77.3904 13.3535 74.4635 9.20779C72.0627 5.80725 68.8663 2.89019 64.9047 1.46252C59.8499 -0.359155 54.015 0.33472 49.6726 3.53237C47.7644 4.93744 46.0971 6.65193 44.7429 8.59667C43.1098 10.9419 41.843 13.6136 40.7059 16.2267C38.1223 22.1634 36.4935 28.6195 36.9978 35.1309C37.4067 40.4104 39.3706 45.5947 42.6067 49.7923ZM43.2138 20.1675C44.2397 17.1988 45.561 14.3393 47.0682 11.5855C48.128 9.64911 49.323 7.8545 50.8596 6.25918C51.6378 5.4513 52.4759 4.6922 53.3901 4.04048C53.8891 3.68473 54.4071 3.35546 54.9435 3.05901C55.2035 2.91521 55.4679 2.7792 55.7364 2.65176C55.8192 2.61242 55.9028 2.57504 55.986 2.53639C55.9835 2.53755 56.073 2.49812 56.1022 2.48479C56.1676 2.45879 56.3583 2.38266 56.4334 2.35442C56.7143 2.24879 56.9989 2.15318 57.2867 2.06829C57.3676 2.04443 57.8177 1.93627 57.4821 2.01007C57.6417 1.97492 57.8007 1.93812 57.9612 1.90716C58.0509 1.88993 58.3745 1.78507 58.447 1.8244C58.4494 1.82567 58.0908 1.86218 58.3143 1.84534C58.3851 1.83998 58.4559 1.82966 58.5266 1.82294C58.6643 1.81 58.8202 1.8208 58.9546 1.79111C58.4612 1.89976 58.9136 1.79812 59.0936 1.79938C59.1643 1.79987 59.2348 1.80182 59.3054 1.80337C59.5252 1.82022 59.7439 1.84076 59.9631 1.86345C60.0503 1.87795 60.1382 1.89032 60.2253 1.9056C60.4447 1.94425 60.6631 1.98874 60.8803 2.03849C60.8758 2.03635 60.8716 2.0345 60.867 2.03226C60.8731 2.03528 60.8805 2.03713 60.8869 2.03986C60.8901 2.04064 60.8933 2.04122 60.8966 2.0419C60.9814 2.06147 61.0253 2.07763 61.0381 2.08601C61.0935 2.09847 61.1492 2.10937 61.1978 2.12339C61.4181 2.18706 61.6369 2.25638 61.8538 2.33116C62.0405 2.39551 62.2259 2.46385 62.4098 2.536C62.5012 2.57192 62.6539 2.63764 62.6035 2.61496C62.6775 2.64738 62.7515 2.6795 62.825 2.71309C63.6585 3.09415 64.4555 3.55281 65.2112 4.07085C65.6316 4.35904 65.9002 4.56106 66.2305 4.83064C66.6089 5.13946 66.9753 5.46269 67.3304 5.798C68.0723 6.49869 68.7634 7.25234 69.4079 8.04328C72.3664 11.6738 74.3685 16.0264 75.73 20.4825C77.3346 25.7341 78.1592 31.3102 78.1702 36.8015C78.1752 39.2669 77.9215 41.7409 77.4137 44.1535C76.9028 46.5817 76.1332 48.9888 74.8764 51.1398C74.2981 52.1295 73.6153 53.0538 72.8086 53.8695C71.9567 54.7132 71.0107 55.427 69.97 56.0227C68.8332 56.6732 67.9787 57.0289 66.7183 57.4062C66.5838 57.4465 66.4486 57.4853 66.3132 57.5225C66.2414 57.5422 66.0774 57.5822 66.0667 57.5856C65.782 57.6513 65.4972 57.715 65.21 57.7697C65.0473 57.8006 64.8842 57.8293 64.7207 57.8562C64.6916 57.861 64.5952 57.8762 64.5148 57.8888C64.4441 57.8971 64.2093 57.9283 64.1464 57.9353C63.9807 57.9537 63.8148 57.97 63.6487 57.9844C63.4824 57.9989 63.3158 58.0115 63.1492 58.022C63.1309 58.0232 63.1126 58.0242 63.0942 58.0251C62.776 57.9942 62.4312 58.0428 62.1103 58.0395C61.9877 58.0383 61.865 58.0347 61.7423 58.0316C61.6858 58.0266 61.6264 58.0282 61.5715 58.0249C61.2364 58.0048 60.902 57.9768 60.5684 57.9413C60.4298 57.9265 60.2917 57.9081 60.1532 57.8928C60.0968 57.8841 60.0403 57.8761 59.9839 57.8672C59.6533 57.8152 59.3238 57.7556 58.996 57.6884C58.8558 57.6595 58.7158 57.6294 58.5762 57.5977C58.4832 57.5767 58.3904 57.5547 58.2977 57.5327C58.2906 57.531 58.2604 57.5232 58.2298 57.5155C58.1582 57.4956 57.9887 57.4493 57.9481 57.438C57.7653 57.3866 57.5833 57.3329 57.4021 57.2765C56.1449 56.8857 55.2132 56.4901 54.0575 55.8792C51.8116 54.6924 49.8022 53.1285 48.0692 51.2735C44.6339 47.5964 42.3286 42.921 41.4178 37.9784C40.3205 32.0231 41.2529 25.8422 43.2138 20.1675Z" fill="#0D2D4C"/>
<path d="M28.0441 101.42C33.616 101.155 39.4528 99.1479 43.3226 94.9799C44.2089 94.0252 44.9927 92.9722 45.6202 91.8299C46.8924 89.4545 47.3699 86.6902 47.4503 84.0205C47.5341 81.2377 47.1966 78.4385 46.5762 75.7279C45.9259 72.8868 44.9399 70.1251 43.8068 67.4432C42.6879 64.7945 41.3833 62.2219 39.8755 59.773C37.2486 55.5065 33.9788 51.4709 29.9278 48.4785C26.3303 45.8211 22.1207 43.9984 17.5969 43.9258C15.2214 43.8878 12.7945 44.353 10.648 45.3834C8.35662 46.4832 6.49172 48.2726 5.01829 50.3183C2.06064 54.4245 1.05385 59.4598 0.419269 64.3876C-0.413925 70.8581 -0.0981914 77.5554 2.21222 83.7086C4.09193 88.7148 7.47446 93.2025 11.8037 96.3501C16.4729 99.7448 22.2408 101.695 28.0441 101.42ZM26.4247 99.3312C26.2845 99.3268 26.1446 99.3195 26.0045 99.3136C25.9811 99.3126 25.9261 99.3087 25.8895 99.3061C25.8612 99.3038 25.8405 99.302 25.8356 99.3015C25.2041 99.2462 24.5749 99.1638 23.9504 99.0547C23.7837 99.0256 23.6173 98.9945 23.4512 98.9616C23.4077 98.9529 23.2182 98.9117 23.1488 98.8974C23.0468 98.8729 22.9108 98.8404 22.8755 98.8315C22.7126 98.791 22.5501 98.7485 22.3881 98.7043C21.7663 98.5349 21.1518 98.3391 20.5464 98.118C20.39 98.061 20.2356 97.9988 20.0794 97.9416C20.074 97.9397 20.0701 97.9382 20.0655 97.9366C20.03 97.922 19.9946 97.9075 19.9591 97.8927C19.6529 97.7647 19.3496 97.6304 19.049 97.4897C18.4708 97.2191 17.9034 96.9255 17.3483 96.6103C17.0814 96.4588 16.8175 96.3021 16.5564 96.1408C16.4359 96.0664 16.3162 95.991 16.197 95.9145C16.1374 95.8763 16.078 95.8379 16.0187 95.7993C16.025 95.8033 15.8674 95.698 15.8135 95.6626C15.7831 95.6415 15.7499 95.6187 15.7474 95.6169C15.6897 95.5761 15.6314 95.536 15.5737 95.4952C15.439 95.4001 15.305 95.3037 15.1722 95.2059C14.9066 95.0104 14.6445 94.81 14.3865 94.6046C13.411 93.8278 12.491 92.982 11.6333 92.077C10.7404 91.1347 10.0775 90.3254 9.34306 89.2847C8.61842 88.2579 7.96427 87.1813 7.38878 86.0639C4.62788 80.7031 3.7981 74.5672 4.07868 68.5985C4.22657 65.4514 4.67958 62.3223 5.34464 59.2443C5.42554 58.8697 5.50966 58.4956 5.59689 58.1224C5.63321 57.9669 5.67138 57.8118 5.70798 57.6563C5.70827 57.6552 5.70837 57.6547 5.70866 57.6536C5.71704 57.6218 5.72531 57.5902 5.73398 57.5586C5.84779 57.147 5.97289 56.7391 6.11182 56.3353C6.43165 55.4057 6.81485 54.4974 7.25598 53.619C7.73518 52.6646 8.28341 51.7438 8.90767 50.8771C9.06559 50.6578 9.22876 50.4424 9.39631 50.2304C9.40186 50.2234 9.40586 50.2183 9.41014 50.2129C9.41569 50.2063 9.42202 50.1987 9.4299 50.1893C9.47011 50.1411 9.51032 50.0927 9.55092 50.0448C9.64594 49.9329 9.74262 49.8223 9.84075 49.7129C10.2212 49.289 10.6246 48.8854 11.0518 48.5085C11.2587 48.3261 11.4711 48.1498 11.6889 47.9807C11.8066 47.8893 11.9257 47.7998 12.0465 47.7127C12.0984 47.6753 12.1511 47.6389 12.2032 47.6018C12.204 47.6011 12.2045 47.6008 12.2054 47.6002C12.2059 47.6 12.2061 47.5998 12.2066 47.5995C12.6986 47.2859 13.2044 46.9998 13.7368 46.7597C13.8312 46.7172 13.9581 46.6657 13.9462 46.6692C14.0463 46.6314 14.1465 46.5942 14.2477 46.5594C14.5046 46.4709 14.7649 46.3926 15.0273 46.3225C15.1227 46.297 15.2186 46.2736 15.3144 46.2493C15.3183 46.2483 15.3215 46.2474 15.3253 46.2465C15.5297 46.2069 15.7341 46.1682 15.9401 46.1368C16.1495 46.105 16.3597 46.0784 16.5705 46.0569C16.6163 46.0522 16.6624 46.0484 16.7084 46.0446C16.7437 46.0422 16.7789 46.0397 16.8141 46.0382C17.2323 46.0205 17.6496 46.027 18.0676 46.044C18.1419 46.0508 18.2162 46.0572 18.2903 46.065C18.5211 46.0892 18.7514 46.119 18.9809 46.1543C19.1957 46.1873 19.4097 46.2251 19.623 46.2672C19.6347 46.2695 19.6465 46.272 19.6583 46.2744C19.7491 46.2977 19.8417 46.3166 19.9322 46.3394C20.3824 46.4528 20.8276 46.5857 21.2669 46.7358C21.4823 46.8095 21.6955 46.8889 21.9086 46.9691C21.9215 46.9739 21.9313 46.9775 21.9418 46.9815C22.0575 47.0308 22.1738 47.0785 22.289 47.1288C23.2011 47.5275 24.0821 47.9953 24.9305 48.5156C25.1423 48.6455 25.3521 48.7787 25.5599 48.915C25.6649 48.9839 25.8415 49.1078 25.6303 48.9604C25.7583 49.0498 25.8873 49.1375 26.0147 49.2279C26.4365 49.5269 26.8496 49.8381 27.2542 50.16C28.1321 50.8585 28.9697 51.6073 29.7694 52.394C31.5402 54.1358 32.9501 55.8479 34.3522 57.8456C37.5271 62.3689 39.9299 67.4227 41.6708 72.6593C43.2666 77.4595 44.0658 82.9901 42.9426 88.016C42.6941 89.1276 42.2791 90.2489 41.7313 91.2716C41.1278 92.37 40.5025 93.2269 39.7007 94.0678C39.277 94.5123 38.8267 94.9314 38.3552 95.3247C38.1265 95.5155 37.8928 95.7003 37.6544 95.879C37.544 95.9618 37.4326 96.0432 37.3203 96.1234C37.264 96.1635 37.2073 96.203 37.1507 96.2427C37.1268 96.2596 37.1129 96.2696 37.1051 96.2754C37.0924 96.2837 37.0803 96.2916 37.0645 96.3018C36.0278 96.9762 34.9382 97.5319 33.8036 98.0207C33.7364 98.0467 33.6694 98.0731 33.602 98.0985C33.4695 98.1485 33.3365 98.1973 33.2031 98.2447C32.8912 98.3555 32.5766 98.459 32.2599 98.5551C31.9653 98.6446 31.6687 98.7275 31.3705 98.8042C31.2098 98.8456 31.0486 98.8842 30.8871 98.9228C30.8844 98.9235 30.8808 98.9243 30.8767 98.9252C30.8255 98.9359 30.7628 98.9489 30.7435 98.9528C30.1168 99.0795 29.4846 99.1787 28.8491 99.2494C28.7083 99.265 28.5671 99.2792 28.4259 99.2922C28.3512 99.299 28.2678 99.2994 28.1916 99.309C27.9075 99.3224 27.6238 99.3358 27.3392 99.3397C27.0341 99.3433 26.7293 99.3409 26.4247 99.3312Z" fill="#0D2D4C"/>
<path d="M108.951 3.15373C108.919 3.16531 108.888 3.1769 108.856 3.18809C108.846 3.19208 108.836 3.19637 108.825 3.20094C108.926 3.1659 108.96 3.15168 108.951 3.15373Z" fill="#0D2D4C"/>
<path d="M93.2111 51.6185C93.8436 52.7011 94.6006 53.7282 95.483 54.6205C99.5305 58.629 105.609 60.1689 111.177 59.788C117.046 59.3863 122.553 56.9927 126.785 52.884C130.668 49.1133 133.266 44.1964 134.435 38.9322C135.797 32.7939 134.914 26.354 132.956 20.445C131.912 17.2938 130.541 14.2561 128.96 11.3396C127.824 9.24408 126.536 7.2826 124.882 5.55409C123.014 3.60312 120.785 2.00897 118.273 1.00297C115.763 -0.002455 112.963 -0.228229 110.305 0.219426C106.097 0.927807 102.405 3.30102 99.5953 6.45661C96.3408 10.1119 94.1084 14.5921 92.5901 19.2165C90.7701 24.7599 89.8421 30.6596 89.7746 36.4909C89.7452 39.0354 89.9957 41.5922 90.5142 44.0834C91.0585 46.6973 91.8575 49.3019 93.2111 51.6185ZM108.361 57.522C108.343 57.5211 108.325 57.5202 108.307 57.5192C108.003 57.5024 108.239 57.5118 108.361 57.522ZM120.863 53.7937C120.919 53.7531 121.031 53.675 120.863 53.7937V53.7937ZM94.0282 32.4407C94.2593 29.6228 94.6786 26.8185 95.3108 24.0621C96.3855 19.3757 98.1653 14.6647 100.82 10.5963C101.12 10.1377 101.434 9.69086 101.754 9.24671C101.775 9.21808 101.788 9.20017 101.796 9.18839C101.805 9.1771 101.818 9.16064 101.836 9.13689C101.92 9.02746 102.004 8.91803 102.089 8.80947C102.258 8.59499 102.43 8.38304 102.605 8.17391C103.244 7.41091 103.928 6.68481 104.661 6.0106C105.018 5.68163 105.387 5.36522 105.768 5.06321C105.911 4.9494 106.057 4.83919 106.203 4.72937C106.227 4.71194 106.306 4.6543 106.381 4.6027C106.48 4.53358 106.581 4.46533 106.682 4.39825C107.066 4.14337 107.46 3.90396 107.864 3.68237C108.056 3.57732 108.25 3.47607 108.446 3.3793C108.536 3.3349 108.626 3.29138 108.717 3.24874C108.755 3.23063 108.792 3.21457 108.825 3.20103C108.806 3.20756 108.785 3.21466 108.762 3.22265C108.793 3.21184 108.825 3.19938 108.856 3.18818C108.908 3.16774 108.943 3.15547 108.951 3.15381C109.304 3.02296 109.65 2.87069 110.011 2.75513C110.213 2.69019 110.417 2.62993 110.623 2.57453C110.677 2.55973 110.733 2.54668 110.789 2.53305C110.826 2.52449 110.863 2.51573 110.901 2.50803C111.317 2.42197 111.736 2.35606 112.159 2.31088C112.186 2.30796 112.252 2.30212 112.314 2.29657C112.331 2.2956 112.346 2.29472 112.356 2.29414C112.595 2.28226 112.834 2.2769 113.073 2.27866C113.237 2.27983 113.401 2.28713 113.565 2.29336C113.578 2.29511 113.592 2.29706 113.609 2.2993C113.937 2.34087 114.262 2.38458 114.586 2.44913C114.639 2.45974 114.692 2.47162 114.746 2.48272C114.869 2.51757 114.994 2.54902 115.118 2.58543C115.427 2.67685 115.734 2.78083 116.035 2.8963C116.153 2.94118 116.269 2.98976 116.385 3.0365C116.386 3.03698 116.387 3.03718 116.388 3.03766C116.449 3.06814 116.513 3.09511 116.575 3.12451C116.864 3.26169 117.148 3.40889 117.427 3.56496C117.686 3.70924 117.94 3.86132 118.189 4.02011C118.304 4.09313 118.418 4.16761 118.531 4.24335C118.587 4.28123 118.643 4.31929 118.699 4.35775C118.695 4.35522 118.803 4.43087 118.867 4.47497C118.919 4.51469 119.059 4.61818 119.092 4.64359C119.217 4.73871 119.34 4.83539 119.462 4.93372C119.703 5.12854 119.939 5.3291 120.171 5.5352C120.591 5.90848 120.995 6.29918 121.383 6.70487C121.767 7.1056 122.135 7.52093 122.487 7.94911C122.648 8.14471 122.804 8.34439 122.96 8.54368C122.97 8.55614 122.988 8.58029 123.004 8.60171C123.023 8.62673 123.042 8.65165 123.06 8.67687C123.135 8.78017 123.209 8.88327 123.283 8.98744C124.849 11.212 126.063 13.7437 127.168 16.221C129.685 21.8618 131.293 27.9674 131.004 34.1828C130.766 39.2828 129.124 44.181 126.151 48.4038C125.526 49.2914 124.741 50.2409 123.886 51.1308C123 52.0524 122.043 52.9053 121.022 53.6747C120.968 53.7156 120.913 53.7561 120.859 53.7966C120.847 53.8048 120.835 53.8136 120.821 53.8236C120.704 53.9061 120.587 53.9882 120.469 54.069C120.193 54.2578 119.913 54.4407 119.629 54.6173C119.077 54.9601 118.511 55.2792 117.932 55.5733C117.651 55.716 117.367 55.8531 117.08 55.9839C116.969 56.0345 116.677 56.1552 116.955 56.0414C116.773 56.1156 116.593 56.1922 116.411 56.264C115.837 56.4898 115.254 56.6895 114.662 56.8623C114.502 56.9089 114.342 56.9534 114.182 56.9961C114.156 57.0028 114.081 57.0229 114.009 57.0419C114.046 57.0299 113.685 57.1171 113.623 57.1304C113.459 57.1651 113.295 57.1978 113.131 57.2286C112.496 57.348 111.855 57.4389 111.212 57.5011C111.155 57.5066 111.098 57.5113 111.041 57.5167C110.919 57.5238 110.797 57.5318 110.675 57.5375C110.34 57.5533 110.004 57.5613 109.669 57.5615C109.358 57.5617 109.047 57.5553 108.736 57.542C108.619 57.537 108.502 57.53 108.385 57.5234C108.303 57.5098 108.214 57.5108 108.133 57.5029C107.495 57.4409 106.86 57.3494 106.231 57.2275C106.092 57.2006 105.954 57.1722 105.815 57.1423C105.812 57.1416 105.804 57.1394 105.794 57.1367C105.785 57.1374 105.752 57.1314 105.68 57.1129C105.659 57.1073 105.637 57.1013 105.616 57.0956C105.613 57.0956 105.609 57.0955 105.608 57.0965C105.609 57.0956 105.611 57.0952 105.612 57.0946C105.317 57.0176 105.023 56.9381 104.732 56.8484C104.443 56.7592 104.155 56.663 103.871 56.5594C103.74 56.5118 103.61 56.4626 103.48 56.4119C103.415 56.3866 103.35 56.361 103.286 56.3349C103.267 56.3271 103.186 56.2933 103.121 56.2663C103.05 56.234 102.905 56.1691 102.87 56.1528C102.745 56.0942 102.621 56.034 102.497 55.9723C102.21 55.8287 101.927 55.6765 101.649 55.5158C101.392 55.367 101.138 55.211 100.89 55.0475C100.757 54.9597 100.626 54.8686 100.495 54.7773C100.493 54.7761 100.492 54.7754 100.49 54.7743C100.45 54.7444 100.411 54.7144 100.371 54.6841C99.8815 54.3099 99.4197 53.9032 98.9821 53.4698C98.6254 53.1091 98.1536 52.5651 97.9274 52.2589C97.9377 52.272 97.7924 52.0673 97.7578 52.0174C97.6705 51.8913 97.585 51.764 97.5016 51.6353C97.3326 51.3744 97.1716 51.1084 97.018 50.8382C96.403 49.7561 95.9062 48.6086 95.4961 47.4343C94.6718 45.0749 94.2175 42.6843 93.982 40.1677C93.7406 37.5945 93.8171 35.0136 94.0282 32.4407Z" fill="#0D2D4C"/>
<path d="M105.611 57.0945C105.613 57.0949 105.614 57.0952 105.615 57.0956C105.643 57.0954 105.747 57.1242 105.793 57.1367C105.82 57.1347 105.644 57.0751 105.611 57.0945Z" fill="#0D2D4C"/>
<path d="M171.974 69.2118C171.86 65.8878 171.399 62.5805 170.702 59.3306C170.245 57.2046 169.627 55.1893 168.654 53.2383C167.629 51.1828 166.277 49.2506 164.533 47.741C162.633 46.0968 160.362 45.1053 157.898 44.6732C153.399 43.8843 148.697 44.7807 144.724 46.9968C140.565 49.3165 137.131 52.7929 134.332 56.6064C130.916 61.2587 128.347 66.5311 126.495 71.9862C124.77 77.0655 123.819 82.8546 125.05 88.1539C125.338 89.391 125.774 90.5834 126.374 91.7035C129.01 96.5015 134.153 99.2613 139.349 100.39C145.191 101.658 151.552 100.874 156.877 98.1487C161.596 95.7341 165.532 91.86 168.101 87.2322C171.138 81.7603 172.185 75.4126 171.974 69.2118ZM144.303 99.8064C144.302 99.8061 144.417 99.812 144.493 99.8155C144.427 99.8179 144.35 99.8196 144.303 99.8064ZM166.141 82.5337C164.479 87.4127 161.442 91.7684 157.405 94.9817C155.489 96.5062 153.23 97.7975 151.016 98.6266C150.539 98.8053 149.839 99.0279 149.267 99.1856C148.966 99.2686 148.663 99.3394 148.36 99.4157C148.356 99.4167 148.353 99.4174 148.35 99.4183C148.301 99.4286 148.252 99.4389 148.203 99.4489C148.014 99.4878 147.824 99.5241 147.634 99.558C147.323 99.6134 147.011 99.6592 146.698 99.7042C146.677 99.7071 146.66 99.7097 146.646 99.7118C146.632 99.7132 146.617 99.7146 146.598 99.7166C146.403 99.7363 146.208 99.7561 146.012 99.7719C145.872 99.7831 145.733 99.7929 145.593 99.8013C145.572 99.8025 145.55 99.8037 145.528 99.8048C145.217 99.7875 144.896 99.8184 144.585 99.8132C144.566 99.8129 144.54 99.8137 144.513 99.8148C144.505 99.8143 144.497 99.8138 144.486 99.8132C144.345 99.8045 144.204 99.7984 144.063 99.7888C143.898 99.7776 143.733 99.7647 143.569 99.7497C143.531 99.7462 143.411 99.7345 143.314 99.7251C143.29 99.7203 142.98 99.6831 142.923 99.6748C142.783 99.6545 142.642 99.6327 142.502 99.6096C142.206 99.5608 141.911 99.503 141.617 99.4436C141.68 99.4551 141.384 99.3912 141.308 99.3729C141.17 99.3393 141.032 99.3043 140.895 99.2679C140.574 99.1832 140.256 99.0911 139.939 98.9916C139.283 98.7853 138.95 98.6629 138.329 98.3987C136.084 97.4436 134.023 96.0895 132.357 94.2962C131.543 93.4186 130.84 92.4469 130.263 91.3974C129.062 89.1554 128.652 86.5361 128.577 84.0205C128.497 81.3558 128.805 78.6778 129.373 76.0763C129.949 73.4415 130.852 70.8832 131.871 68.3898C132.926 65.8083 134.16 63.3011 135.585 60.9034C138.053 56.7512 141.107 52.8482 144.896 49.8201C146.458 48.5724 148.123 47.5117 149.971 46.6975C150.183 46.6043 150.397 46.5148 150.612 46.4292C150.697 46.3953 150.783 46.3627 150.868 46.33C150.899 46.3194 151.03 46.2718 151.086 46.2523C151.526 46.1006 151.971 45.9662 152.421 45.8512C152.52 45.826 152.619 45.803 152.718 45.7784C152.721 45.7775 152.724 45.7767 152.728 45.7759C152.736 45.7743 152.745 45.7726 152.754 45.7707C152.984 45.7253 153.214 45.6819 153.446 45.6456C153.537 45.6313 153.629 45.6185 153.72 45.6054C153.933 45.5865 154.145 45.5698 154.357 45.5543C154.436 45.5528 154.515 45.551 154.593 45.5509C154.681 45.5508 154.769 45.5524 154.857 45.5534C155.048 45.5666 155.239 45.5827 155.43 45.6C155.542 45.6168 155.654 45.6325 155.766 45.6513C155.955 45.6831 156.154 45.7484 156.344 45.7618C156.323 45.7604 156.306 45.7591 156.289 45.7577C156.317 45.7618 156.345 45.7667 156.368 45.7723C156.479 45.8004 156.591 45.8299 156.702 45.861C157.308 46.0304 157.532 46.111 158.12 46.3893C160.164 47.3555 161.819 48.9771 163.123 50.8012C165.907 54.6953 166.866 59.3733 167.495 64.037C168.328 70.2004 168.162 76.6042 166.141 82.5337Z" fill="#0D2D4C"/>
<path d="M156.289 45.7578C156.004 45.7367 156.155 45.7386 156.289 45.7578V45.7578Z" fill="#0D2D4C"/>
</svg>
